<svg xmlns="http://www.w3.org/2000/svg" width="100" height="105.978" viewBox="511.014 2111 100 105.978"><g data-name="004-app"><path d="M576.406 2213.659h-48.73c-7.357 0-13.344-5.977-13.344-13.323v-48.717a1.66 1.66 0 1 0-3.318 0v48.717c0 9.176 7.475 16.642 16.663 16.642h48.73a1.66 1.66 0 1 0 0-3.32Zm0 0" fill="#fff" fill-rule="evenodd" data-name="Path 1603"/><path d="M611.014 2135.804c0-4.653-1.298-9.19-3.754-13.119a1.552 1.552 0 1 0-2.633 1.646 21.619 21.619 0 0 1 3.282 11.473c0 11.965-9.75 21.698-21.732 21.698-11.984 0-21.733-9.733-21.733-21.698s9.75-21.7 21.733-21.7c5.037 0 9.947 1.761 13.824 4.956a1.553 1.553 0 0 0 1.974-2.396 24.896 24.896 0 0 0-15.798-5.664c-9.218 0-17.278 5.04-21.564 12.505h-38.01c-8.595 0-15.59 6.985-15.59 15.57v9.425a1.552 1.552 0 1 0 3.106 0v-9.425c0-6.873 5.6-12.465 12.484-12.465h36.506a24.643 24.643 0 0 0-1.77 9.194c0 13.676 11.142 24.803 24.838 24.803 4.626 0 8.962-1.272 12.674-3.481v44.282c0 6.873-5.6 12.465-12.484 12.465h-6.887a1.552 1.552 0 1 0 0 3.105h6.887c8.595 0 15.59-6.985 15.59-15.57v-46.464c5.527-4.553 9.057-11.443 9.057-19.14Zm0 0" fill="#fff" fill-rule="evenodd" data-name="Path 1604"/><path d="M586.18 2149.507a1.66 1.66 0 0 0 1.66-1.66v-20.664a1.66 1.66 0 0 0-2.777-1.228l-3.557 3.239a1.66 1.66 0 1 0 2.234 2.454l.78-.71v16.91c0 .915.743 1.659 1.66 1.659Zm0 0" fill="#fff" fill-rule="evenodd" data-name="Path 1605"/><path d="M528.95 2199.97c.684 0 1.105-.251 1.265-.757l1.402-4.889h8.424l1.42 4.902c.173.497.622.745 1.342.745.597 0 1.161-.156 1.694-.466.533-.31.799-.68.799-1.11 0-.072-.023-.18-.068-.323l-6.786-22.176c-.292-.765-1.116-1.147-2.474-1.147-1.332 0-2.145.41-2.436 1.231l-6.805 22.18a1.017 1.017 0 0 0-.034.308c0 .41.239.763.718 1.06a2.88 2.88 0 0 0 1.539.443Zm6.858-20.265 3.437 11.745h-6.804l3.367-11.745Zm0 0" fill="#fff" fill-rule="evenodd" data-name="Path 1606"/><path d="M547.998 2199.967c.502 0 .931-.108 1.285-.325.355-.217.532-.507.532-.873v-8.453h4.25c2.33 0 4.198-.61 5.603-1.83 1.405-1.22 2.108-3.131 2.108-5.732v-.273c0-2.602-.68-4.507-2.04-5.716-1.36-1.209-3.182-1.814-5.466-1.814h-6.683c-.411 0-.749.115-1.011.343-.263.228-.394.502-.394.82v22.655c0 .366.183.656.548.873.366.217.789.325 1.268.325Zm1.817-21.799h4.25c1.302 0 2.307.365 3.015 1.095.708.73 1.063 1.836 1.063 3.32v.41c0 1.483-.355 2.595-1.063 3.337-.708.741-1.713 1.112-3.016 1.112h-4.25v-9.274Zm0 0" fill="#fff" fill-rule="evenodd" data-name="Path 1607"/><path d="M579.044 2182.48c0-2.6-.679-4.506-2.038-5.715-1.36-1.209-3.182-1.814-5.467-1.814h-6.683c-.411 0-.749.115-1.01.343-.263.228-.395.502-.395.82v22.655c0 .366.182.656.548.873.366.217.79.325 1.269.325.502 0 .93-.108 1.285-.325.354-.217.53-.507.53-.873v-8.453h4.25c2.33 0 4.2-.61 5.604-1.83 1.405-1.22 2.107-3.131 2.107-5.732v-.274Zm-3.632.513c0 1.483-.355 2.595-1.063 3.337-.708.741-1.713 1.112-3.015 1.112h-4.25v-9.274h4.25c1.302 0 2.307.365 3.015 1.095.708.73 1.063 1.837 1.063 3.32v.41Zm0 0" fill="#fff" fill-rule="evenodd" data-name="Path 1608"/></g></svg>