<svg xmlns="http://www.w3.org/2000/svg" width="100" height="99.892" viewBox="509 1231 100 99.892"><g data-name="001-data"><path d="M522.045 1268.532c.323.323.747.486 1.172.486a1.658 1.658 0 0 0 1.173-2.83l-4.026-4.026 4.025-4.025a1.658 1.658 0 0 0-2.344-2.345l-5.198 5.198a1.658 1.658 0 0 0 0 2.344l5.198 5.198Zm0 0" fill="#fff" fill-rule="evenodd" data-name="Path 1565"/><path d="m535.33 1262.162-4.026 4.025a1.657 1.657 0 0 0 2.345 2.345l5.198-5.198a1.657 1.657 0 0 0 0-2.344l-5.198-5.198a1.657 1.657 0 1 0-2.344 2.344l4.025 4.026Zm0 0" fill="#fff" fill-rule="evenodd" data-name="Path 1566"/><path d="M526.959 1268.903a1.659 1.659 0 0 0 2.15-.937l4.083-10.396a1.658 1.658 0 0 0-3.086-1.212l-4.084 10.396a1.658 1.658 0 0 0 .937 2.149Zm0 0" fill="#fff" fill-rule="evenodd" data-name="Path 1567"/><path d="M518.958 1276.668h11.168a1.658 1.658 0 0 0 0-3.316h-11.168a1.657 1.657 0 1 0 0 3.316Zm0 0" fill="#fff" fill-rule="evenodd" data-name="Path 1568"/><path d="M552.093 1273.352h-19.635a1.658 1.658 0 0 0 0 3.316h19.635a1.658 1.658 0 1 0 0-3.316Zm0 0" fill="#fff" fill-rule="evenodd" data-name="Path 1569"/><path d="M518.958 1282.817h4.757a1.658 1.658 0 0 0 0-3.316h-4.757a1.657 1.657 0 1 0 0 3.316Zm0 0" fill="#fff" fill-rule="evenodd" data-name="Path 1570"/><path d="M544.932 1279.5a1.657 1.657 0 1 0 0 3.317h2.897a1.658 1.658 0 1 0 0-3.316h-2.897Zm0 0" fill="#fff" fill-rule="evenodd" data-name="Path 1571"/><path d="M542.803 1281.158c0-.915-.742-1.657-1.658-1.657h-14.23a1.657 1.657 0 1 0 0 3.316h14.23c.916 0 1.658-.743 1.658-1.659Zm0 0" fill="#fff" fill-rule="evenodd" data-name="Path 1572"/><path d="M550.276 1281.158c0 .916.742 1.659 1.657 1.659h5.427a1.658 1.658 0 1 0 0-3.316h-5.427c-.915 0-1.657.742-1.657 1.657Zm0 0" fill="#fff" fill-rule="evenodd" data-name="Path 1573"/><path d="M542.591 1263.258h5.724a1.658 1.658 0 1 0 0-3.316h-5.724a1.658 1.658 0 1 0 0 3.316Zm0 0" fill="#fff" fill-rule="evenodd" data-name="Path 1574"/><path d="M550.765 1263.258h34.924a1.658 1.658 0 1 0 0-3.316h-34.924a1.658 1.658 0 1 0 0 3.316Zm0 0" fill="#fff" fill-rule="evenodd" data-name="Path 1575"/><path d="M580.11 1266.355h-14.147a1.658 1.658 0 0 0 0 3.316h14.148a1.658 1.658 0 0 0 0-3.316Zm0 0" fill="#fff" fill-rule="evenodd" data-name="Path 1576"/><path d="M562.729 1266.355h-4.863a1.658 1.658 0 1 0 0 3.316h4.863a1.657 1.657 0 1 0 0-3.316Zm0 0" fill="#fff" fill-rule="evenodd" data-name="Path 1577"/><path d="M542.297 1269.671h11.914a1.658 1.658 0 0 0 0-3.316h-11.914a1.658 1.658 0 1 0 0 3.316Zm0 0" fill="#fff" fill-rule="evenodd" data-name="Path 1578"/><path d="M540.833 1285.597h-11.168a1.658 1.658 0 1 0 0 3.315h11.168a1.658 1.658 0 0 0 0-3.315Zm0 0" fill="#fff" fill-rule="evenodd" data-name="Path 1579"/><path d="M527.538 1285.597h-8.58a1.657 1.657 0 1 0 0 3.315h8.58a1.657 1.657 0 1 0 0-3.315Zm0 0" fill="#fff" fill-rule="evenodd" data-name="Path 1580"/><path d="M558.63 1285.597h-14.59a1.657 1.657 0 1 0 0 3.315h14.59a1.658 1.658 0 0 0 0-3.315Zm0 0" fill="#fff" fill-rule="evenodd" data-name="Path 1581"/><path d="M575.28 1278.11h-7.977a1.658 1.658 0 0 0 0 3.315h7.977a1.658 1.658 0 1 0 0-3.316Zm0 0" fill="#fff" fill-rule="evenodd" data-name="Path 1582"/><path d="M584.326 1281.425h11.261a1.658 1.658 0 1 0 0-3.316h-11.261a1.657 1.657 0 1 0 0 3.316Zm0 0" fill="#fff" fill-rule="evenodd" data-name="Path 1583"/><path d="M582.236 1278.11h-2.58a1.658 1.658 0 1 0 0 3.315h2.58a1.658 1.658 0 1 0 0-3.316Zm0 0" fill="#fff" fill-rule="evenodd" data-name="Path 1584"/><path d="M567.303 1297.31h7.977a1.657 1.657 0 1 0 0-3.315h-7.977a1.658 1.658 0 0 0 0 3.315Zm0 0" fill="#fff" fill-rule="evenodd" data-name="Path 1585"/><path d="M584.326 1297.31h11.261a1.658 1.658 0 1 0 0-3.315h-11.261a1.657 1.657 0 1 0 0 3.315Zm0 0" fill="#fff" fill-rule="evenodd" data-name="Path 1586"/><path d="M579.655 1297.31h2.581a1.658 1.658 0 1 0 0-3.315h-2.58a1.657 1.657 0 1 0 0 3.315Zm0 0" fill="#fff" fill-rule="evenodd" data-name="Path 1587"/><path d="M575.28 1309.88h-7.977a1.658 1.658 0 0 0 0 3.315h7.977a1.657 1.657 0 1 0 0-3.315Zm0 0" fill="#fff" fill-rule="evenodd" data-name="Path 1588"/><path d="M595.587 1309.88h-11.261a1.657 1.657 0 1 0 0 3.315h11.261a1.658 1.658 0 1 0 0-3.315Zm0 0" fill="#fff" fill-rule="evenodd" data-name="Path 1589"/><path d="M582.236 1309.88h-2.58a1.658 1.658 0 1 0 0 3.315h2.58a1.657 1.657 0 1 0 0-3.315Zm0 0" fill="#fff" fill-rule="evenodd" data-name="Path 1590"/><path d="M602.56 1231h-87.118a6.449 6.449 0 0 0-6.442 6.442v70.814c0 3.551 2.89 6.44 6.442 6.44h5.507a1.463 1.463 0 1 0 0-2.926h-5.507a3.518 3.518 0 0 1-3.515-3.514v-5.552h53.32v2.522h-1.16a2.881 2.881 0 0 0-2.879 2.879v3.665h-31.36a1.464 1.464 0 0 0 0 2.927h14.071v5.249H539.5a5.352 5.352 0 0 0-5.346 5.346v3.161a2.442 2.442 0 0 0 2.44 2.44h44.702a2.442 2.442 0 0 0 2.44-2.44v-3.161a5.352 5.352 0 0 0-5.347-5.346h-4.419v-1.85h27.056a2.881 2.881 0 0 0 2.878-2.88v-.688c2.853-.662 4.985-3.222 4.985-6.272l.111-70.815a6.447 6.447 0 0 0-6.44-6.441Zm-38.424 68.22v-7.016h36.842v7.015h-36.842Zm4.038-9.943v-3.08h28.765v3.08h-28.765Zm28.765 12.87v3.08h-28.765v-3.08h28.765Zm-50.093 12.55h14.362v.52a2.881 2.881 0 0 0 2.879 2.878h6.956v1.85h-24.197v-5.248Zm31.544 8.176a2.421 2.421 0 0 1 2.418 2.419v2.674h-43.727v-2.674a2.422 2.422 0 0 1 2.42-2.419h38.889Zm22.588-7.705h-36.842v-7.014h36.842v7.014Zm4.985-6.912a3.515 3.515 0 0 1-2.058 3.194v-3.346a2.882 2.882 0 0 0-2.879-2.878h-1.16v-2.522h6.097v5.552Zm0-8.479h-2.106c.03-.165.048-7.622.048-7.622a2.882 2.882 0 0 0-2.879-2.878h-1.16v-3.08h1.16a2.882 2.882 0 0 0 2.879-2.878v-7.113a2.882 2.882 0 0 0-2.879-2.879h-8.266a1.463 1.463 0 1 0 0 2.928h8.217v7.015h-36.841v-7.015h19.517a1.463 1.463 0 1 0 0-2.928h-19.566a2.882 2.882 0 0 0-2.879 2.879v7.113a2.882 2.882 0 0 0 2.879 2.879h1.16v3.079h-1.16a2.882 2.882 0 0 0-2.879 2.878s.018 7.457.048 7.622h-49.329v-48.869h94.035v48.87Zm0-51.796h-93.928v-10.54a3.518 3.518 0 0 1 3.514-3.514h86.9a3.518 3.518 0 0 1 3.514 3.515v10.539Zm0 0" fill="#fff" fill-rule="evenodd" data-name="Path 1591"/><path d="M521.226 1237.363a4.87 4.87 0 0 0-4.864 4.865 4.87 4.87 0 0 0 4.864 4.866 4.872 4.872 0 0 0 4.866-4.866 4.87 4.87 0 0 0-4.866-4.865Zm0 6.415c-.854 0-1.55-.695-1.55-1.55 0-.854.696-1.55 1.55-1.55a1.55 1.55 0 0 1 0 3.1Zm0 0" fill="#fff" fill-rule="evenodd" data-name="Path 1592"/><path d="M531.082 1237.363a4.87 4.87 0 0 0-4.866 4.865 4.872 4.872 0 0 0 4.866 4.866 4.87 4.87 0 0 0 4.864-4.866 4.87 4.87 0 0 0-4.864-4.865Zm0 6.415a1.55 1.55 0 0 1-1.55-1.55c0-.854.695-1.55 1.55-1.55.853 0 1.55.696 1.55 1.55 0 .855-.697 1.55-1.55 1.55Zm0 0" fill="#fff" fill-rule="evenodd" data-name="Path 1593"/><path d="M541.88 1237.363a4.87 4.87 0 0 0-4.865 4.865 4.87 4.87 0 0 0 4.864 4.866 4.872 4.872 0 0 0 4.866-4.866 4.87 4.87 0 0 0-4.866-4.865Zm0 6.415c-.854 0-1.55-.695-1.55-1.55 0-.854.696-1.55 1.55-1.55a1.55 1.55 0 0 1 0 3.1Zm0 0" fill="#fff" fill-rule="evenodd" data-name="Path 1594"/></g></svg>