<svg xmlns="http://www.w3.org/2000/svg" width="100" height="90.426" viewBox="910.016 1746 100 90.426"><g data-name="006-domain-registration"><path d="M1008.42 1746H911.61c-.88 0-1.595.714-1.595 1.596v87.234c0 .881.714 1.596 1.595 1.596h96.809c.881 0 1.596-.715 1.596-1.596v-17.021a1.596 1.596 0 1 0-3.192 0v15.425h-93.617v-71.277h93.617v49.469a1.596 1.596 0 1 0 3.192 0v-63.83c0-.882-.715-1.596-1.596-1.596Zm-95.213 3.191h59.043v9.575h-59.043v-9.575Zm62.234 9.575v-9.575h31.383v9.575h-31.383Z" fill="#fff" fill-rule="evenodd" data-name="Path 1613"/><path d="M991.142 1752.527c-.976 0-1.77.794-1.77 1.77 0 .975.794 1.77 1.77 1.77s1.77-.795 1.77-1.77c0-.976-.794-1.77-1.77-1.77Z" fill="#fff" fill-rule="evenodd" data-name="Path 1614"/><path d="M982.43 1752.527c-.975 0-1.769.794-1.769 1.77 0 .975.794 1.77 1.77 1.77s1.77-.795 1.77-1.77c0-.976-.794-1.77-1.77-1.77Z" fill="#fff" fill-rule="evenodd" data-name="Path 1615"/><path d="M999.507 1752.527c-.976 0-1.77.794-1.77 1.77 0 .975.794 1.77 1.77 1.77s1.77-.795 1.77-1.77c0-.976-.794-1.77-1.77-1.77Z" fill="#fff" fill-rule="evenodd" data-name="Path 1616"/><path d="M942.059 1789.682a1.659 1.659 0 0 0 1.384-1.17l3.817-12.743a1.66 1.66 0 0 0-3.18-.952l-2.737 9.138-2.639-4.404a1.66 1.66 0 0 0-2.847 0l-2.639 4.404-2.737-9.137a1.66 1.66 0 1 0-3.179.953l3.817 12.74a1.66 1.66 0 0 0 3.013.377l3.148-5.256 3.15 5.256a1.66 1.66 0 0 0 1.629.794Z" fill="#fff" fill-rule="evenodd" data-name="Path 1617"/><path d="M953.753 1789.68a1.663 1.663 0 0 0 1.63-.794l3.148-5.255 3.149 5.255a1.66 1.66 0 0 0 3.013-.376l3.817-12.742a1.66 1.66 0 0 0-3.18-.953l-2.737 9.14-2.639-4.405a1.66 1.66 0 0 0-2.847 0l-2.638 4.404-2.737-9.137a1.659 1.659 0 1 0-3.18.952l3.817 12.741a1.66 1.66 0 0 0 1.384 1.17Z" fill="#fff" fill-rule="evenodd" data-name="Path 1618"/><path d="M988.647 1773.7a1.66 1.66 0 0 0-2.066 1.114l-2.738 9.138-2.639-4.404a1.66 1.66 0 0 0-2.847 0l-2.639 4.404-2.737-9.137a1.66 1.66 0 0 0-3.179.953l3.817 12.74a1.66 1.66 0 0 0 3.013.377l3.149-5.256 3.149 5.256a1.66 1.66 0 0 0 3.012-.377l3.818-12.742a1.659 1.659 0 0 0-1.113-2.065Z" fill="#fff" fill-rule="evenodd" data-name="Path 1619"/><path d="M939.475 1798.113a1.66 1.66 0 0 0-1.66-1.659h-8.849a1.66 1.66 0 0 0-1.66 1.66v8.85c0 .916.744 1.658 1.66 1.658h8.85a1.66 1.66 0 0 0 1.66-1.659v-8.85Zm-3.318 7.19h-5.532v-5.53h5.532v5.53Z" fill="#fff" fill-rule="evenodd" data-name="Path 1620"/><path d="M937.816 1810.661h-8.85a1.66 1.66 0 0 0-1.66 1.66v8.85c0 .916.744 1.659 1.66 1.659h8.85a1.66 1.66 0 0 0 1.66-1.66v-8.85a1.66 1.66 0 0 0-1.66-1.659Zm-1.66 8.85h-5.53v-5.531h5.53v5.531Z" fill="#fff" fill-rule="evenodd" data-name="Path 1621"/><path d="M988.062 1800.93h-6.637a1.66 1.66 0 1 0 0 3.318h6.637a1.66 1.66 0 1 0 0-3.318Z" fill="#fff" fill-rule="evenodd" data-name="Path 1622"/><path d="M975.908 1800.93h-32.636a1.66 1.66 0 1 0 0 3.318h32.636a1.66 1.66 0 1 0 0-3.318Z" fill="#fff" fill-rule="evenodd" data-name="Path 1623"/><path d="M988.062 1815.802h-6.637a1.66 1.66 0 1 0 0 3.318h6.637a1.66 1.66 0 1 0 0-3.318Z" fill="#fff" fill-rule="evenodd" data-name="Path 1624"/><path d="M975.908 1815.802h-32.636a1.66 1.66 0 1 0 0 3.318h32.636a1.66 1.66 0 1 0 0-3.318Z" fill="#fff" fill-rule="evenodd" data-name="Path 1625"/></g></svg>