<svg xmlns="http://www.w3.org/2000/svg" width="801" height="526.634" viewBox="1039 373 801 526.634"><g data-name="undraw_pair_programming_njlp"><path d="M400.5 0C621.69 0 801 179.31 801 400.5s-98.81 0-320 0-481 221.19-481 0S179.31 0 400.5 0Z" fill-rule="evenodd" fill="url(&quot;#a&quot;)" transform="translate(1039 373)" data-name="Path 1201"/><path d="M1277.595 610.593h216.212v50.065h-216.212v-50.065z" fill="#565661" fill-rule="evenodd" data-name="Rectangle 121"/><path d="M1277.595 610.593h216.212v50.065h-216.212v-50.065z" fill-rule="evenodd" data-name="Rectangle 122"/><path d="m1303.463 662.306 1.518 133.658-20.795 52.498-1.61-186.156h20.887Z" fill="#bcbec9" fill-rule="evenodd" data-name="Path 1363"/><path d="m1279.875 620.204 210.507 1.267v37.288h-210.507v-38.555Z" fill="#565661" fill-rule="evenodd" data-name="Path 1364"/><path d="m1472.371 662.306 18.011 2.54v181.587l-18.01-55.542V662.306Z" fill="#bcbec9" fill-rule="evenodd" data-name="Path 1365"/><path d="M1497.225 612.599h101.45v215.58h-101.45v-215.58z" fill="#efeff0" fill-rule="evenodd" data-name="Rectangle 123"/><path d="M1505.342 618.587h85.217V784.3h-85.217V618.587z" fill="#565661" fill-rule="evenodd" data-name="Rectangle 124"/><path d="M1505.342 618.587h85.217V784.3h-85.217V618.587z" fill-rule="evenodd" data-name="Rectangle 125"/><path d="M1505.342 621.982h85.217v36.777h-85.217v-36.777z" fill="#565661" fill-rule="evenodd" data-name="Rectangle 126"/><path d="M1505.342 662.306h85.217v78.115h-85.217v-78.115z" fill="#565661" fill-rule="evenodd" data-name="Rectangle 127"/><path d="M1505.342 745.242h85.217v78.115h-85.217v-78.115z" fill="#565661" fill-rule="evenodd" data-name="Rectangle 128"/><path d="M1505.342 745.242h85.217v78.115h-85.217v-78.115z" fill-rule="evenodd" data-name="Rectangle 129"/><path d="M1503.404 835.097a5.492 7.018 0 1 1 0 .1z" fill="#565661" fill-rule="evenodd" data-name="Ellipse 33"/><path d="M1579.574 835.432a5.492 7.018 0 1 1 0 .1z" fill="#565661" fill-rule="evenodd" data-name="Ellipse 34"/><path d="M1276.832 848.462h7.354l-2.022-233.994h-11.168l5.836 233.994Z" fill="#efeff0" fill-rule="evenodd" data-name="Path 1366"/><path d="M1490.382 612.599v233.834h6.843V614.468l-6.843-1.87Z" fill="#efeff0" fill-rule="evenodd" data-name="Path 1367"/><path d="M1282.523 656.47v8.376h207.86v-6.088l-207.86-2.288Z" fill="#efeff0" fill-rule="evenodd" data-name="Path 1368"/><path d="M1296.612 596.877h263.517l38.295 12.678v7.354l-328.694-2.533v-7.483l26.882-10.016Z" fill="#fff" fill-rule="evenodd" data-name="Path 1369"/><path d="m1269.73 606.893 328.694 2.662v7.354l-328.694-2.533v-7.483Z" fill="#bcbec9" fill-rule="evenodd" data-name="Path 1370"/><path d="m423.158 549.178-1.525-.23v-.19c-.046-.359-.1-.71-.153-1.068.625.496 1.22.992 1.77 1.488h-.092Z" fill-rule="evenodd" fill="url(&quot;#b&quot;)" transform="translate(876.345 144.923)" data-name="Path 1371"/><path d="M1266.35 811.892a33.58 33.58 0 0 1 3.006-.557 36.174 36.174 0 0 1 20.307 2.99c-.641 4.715-1.274 9.59.084 14.143.946 3.204 2.845 6.103 3.25 9.444a5.569 5.569 0 0 1 4.386 3.876c.292.875.44 1.792.435 2.715a14.492 14.492 0 0 1-.428 3.387 3.417 3.417 0 0 1-3.661 3.052c-5.905.671-11.695-1.656-17.187-3.937l-10.68-4.44c-1.251-.518-2.51-1.044-3.707-1.685a20.315 20.315 0 0 1-5.943-4.86 2.708 2.708 0 0 1-.71-1.281c-.198-1.343 1.374-2.144 2.373-3.051.293-.277.55-.59.763-.931 1.182-1.785 1.297-4.25 2.006-6.355 1.678-4.996 6.866-8.216 8.697-13.09.099-.267.19-.534.267-.809" fill="#a26565" fill-rule="evenodd" data-name="Path 1372"/><path d="M1297.818 844.503a14.493 14.493 0 0 1-.428 3.387 3.418 3.418 0 0 1-3.661 3.052c-5.905.671-11.695-1.656-17.187-3.937l-10.68-4.44c-1.251-.518-2.51-1.044-3.707-1.685a20.314 20.314 0 0 1-5.943-4.86 2.708 2.708 0 0 1-.71-1.281c-.198-1.343 1.374-2.144 2.373-3.051.293-.277.55-.59.763-.931 2.945.633 6.599 2.487 8.849 3.204a26.868 26.868 0 0 1 6.438 2.693c2.808 1.8 4.83 4.577 7.21 6.865 2.38 2.289 5.454 4.371 8.772 4.09a14.494 14.494 0 0 0 4.989-1.725l2.922-1.38Z" fill-rule="evenodd" data-name="Path 1373"/><path d="M1285.315 736.096a3.532 3.532 0 0 1-1.297 3.814c-1 .618-2.289.534-3.28 1.205-1.229.862-1.404 2.57-1.618 4.05-.763 5.089-3.288 9.704-5.446 14.38-2.16 4.677-3.982 9.78-3.19 14.86.542 3.449 2.236 7.126.65 10.23-.39.763-.97 1.442-1.412 2.182-2.174 3.631-.938 8.231-1.022 12.457.032.47-.072.938-.298 1.35a3.73 3.73 0 0 1-1.205.931 6.393 6.393 0 0 0-2.601 4.905c-.065 1.921.167 3.84.686 5.691.084.747.414 1.445.939 1.983a3.51 3.51 0 0 0 2.052.58 45.647 45.647 0 0 1 13.93 3.387c2.89 1.206 5.698 2.716 8.772 3.296.6.186 1.252.117 1.8-.19.387-.35.654-.811.763-1.32 1.182-3.891 2.38-7.904 1.976-11.947-.176-1.74-.641-3.44-.763-5.18-.534-6.865 4.112-13.06 5.584-19.833.664-3.052.664-6.21 1.137-9.292 1.281-8.444 5.934-16.02 7.727-24.373.25-1.557.638-3.089 1.16-4.577 1.335-3.234 4.424-5.858 4.493-9.36a3.646 3.646 0 0 0-.58-2.182 4.943 4.943 0 0 0-2.723-1.525 92.963 92.963 0 0 0-12.625-2.548 23.914 23.914 0 0 0-5.935-.412 17.47 17.47 0 0 0-7.262 2.563c-2.945 1.816-1.053 2.25-.412 4.875Z" fill="#454b69" fill-rule="evenodd" data-name="Path 1374"/><path d="M1285.315 736.096a3.532 3.532 0 0 1-1.297 3.814c-1 .618-2.289.534-3.28 1.205-1.229.862-1.404 2.57-1.618 4.05-.763 5.089-3.288 9.704-5.446 14.38-2.16 4.677-3.982 9.78-3.19 14.86.542 3.449 2.236 7.126.65 10.23-.39.763-.97 1.442-1.412 2.182-2.174 3.631-.938 8.231-1.022 12.457.032.47-.072.938-.298 1.35a3.73 3.73 0 0 1-1.205.931 6.393 6.393 0 0 0-2.601 4.905c-.065 1.921.167 3.84.686 5.691.084.747.414 1.445.939 1.983a3.51 3.51 0 0 0 2.052.58 45.647 45.647 0 0 1 13.93 3.387c2.89 1.206 5.698 2.716 8.772 3.296.6.186 1.252.117 1.8-.19.387-.35.654-.811.763-1.32 1.182-3.891 2.38-7.904 1.976-11.947-.176-1.74-.641-3.44-.763-5.18-.534-6.865 4.112-13.06 5.584-19.833.664-3.052.664-6.21 1.137-9.292 1.281-8.444 5.934-16.02 7.727-24.373.25-1.557.638-3.089 1.16-4.577 1.335-3.234 4.424-5.858 4.493-9.36a3.646 3.646 0 0 0-.58-2.182 4.943 4.943 0 0 0-2.723-1.525 92.963 92.963 0 0 0-12.625-2.548 23.914 23.914 0 0 0-5.935-.412 17.47 17.47 0 0 0-7.262 2.563c-2.945 1.816-1.053 2.25-.412 4.875Z" fill-rule="evenodd" data-name="Path 1375"/><path d="M1270.386 851.064h-6.507l-4.257-87.453-.298-4.973 5.531-1.946.374 5.287 5.157 89.085Z" fill="#565661" fill-rule="evenodd" data-name="Path 1376"/><path d="m1265.229 761.979-5.607 1.632-.298-4.973 5.531-1.946.374 5.287Z" fill-rule="evenodd" data-name="Path 1377"/><path d="m1352.033 869.563-10.733 1.297-49.448-112.222-13.334-.977-23.42 6.835-4.554 133.612h-10.733l4.226-138.494-25.7.656-45.862 114.167h-9.757l48.235-133.429 1.86-5.141 71.884-2.464 17.919 10.046.229.58 49.188 125.534Z" fill="#565661" fill-rule="evenodd" data-name="Path 1378"/><path d="M1302.845 744.03c-15.448 4.653-31.483 9.733-31.483 9.733s-14.624 5.104-20.818 0a9.359 9.359 0 0 0-2.586-1.426 12.74 12.74 0 0 0 2.586 1.426l-39.591-12.762 1.853-5.134 71.89-2.464 17.92 10.047.229.58Z" fill-rule="evenodd" data-name="Path 1379"/><path d="m1229.726 721.884 29.27-6.507s69.938 13.014 75.14 18.217c0 0-55.946 11.381-62.125 15.256-6.18 3.876-42.94 8.163-42.285-26.966Z" fill="#fff" fill-rule="evenodd" data-name="Path 1380"/><path d="M1217.14 648.735c-2.29 7.254-8.537 13.792-16.143 14.105a2.815 2.815 0 0 1-1.61-.29c-.953-.595-.976-1.991-.587-3.052.39-1.06 1.068-2.013 1.175-3.127a2.045 2.045 0 0 0-.046-.68c-.198-.907-.938-1.716-1.807-1.525a3.051 3.051 0 0 0 .648-4.05 9.153 9.153 0 0 1-.93-1.252c-.634-1.296.35-2.753.762-4.142.847-3.051-1.304-6.103-1.48-9.284-.152-2.845 1.29-5.523 1.648-8.345.572-4.577-1.701-8.964-1.968-13.533-.183-3.189.603-6.347 1.48-9.421.763-2.746 1.625-5.523 1.678-8.391 0-2.083-.359-4.143-.458-6.218a10.825 10.825 0 0 1 1-5.523 4.417 4.417 0 0 1 2.51-2.143c2.502-.84 4.142.465 4.508 2.838.61 4.035.26 8.154 1.06 12.205a57.212 57.212 0 0 0 3.35 11.054c1.35 3.219 2.99 6.331 4.027 9.665a53.245 53.245 0 0 1 1.67 8.391c1.023 7.621 1.824 15.463-.488 22.718Z" fill="#6c63ff" fill-rule="evenodd" data-name="Path 1381"/><path d="M1390.884 833.373a11.831 11.831 0 0 1-8.337 4.913c-3.311.412-6.752-.42-9.963.488a3.051 3.051 0 0 0-2.289 1.763c-.08.62-.128 1.243-.145 1.868-.373 2.037-3.051 2.495-5.134 2.48l-8.59-.054c-1.784 0-3.76-.099-5.042-1.335a3.753 3.753 0 0 1-.076-4.943c.267-.316.593-.575.961-.763a3.051 3.051 0 0 1-2.06-2.448 9.108 9.108 0 0 1 .16-3.365c0-3.188.764-8.528 3.006-11.023 2.754-3.104 7.53-7.117 11.687-7.948a9.154 9.154 0 0 1 7.919 2.25c1.968 1.83 3.402 4.699 6.102 5.02 1.473.182 2.891-.512 4.348-.763a8.094 8.094 0 0 1 8.247 4.355c.37.755.626 1.56.763 2.388a9.917 9.917 0 0 1-1.557 7.117Z" fill="#a26565" fill-rule="evenodd" data-name="Path 1382"/><path d="M1390.884 833.373a11.832 11.832 0 0 1-8.337 4.913c-3.311.412-6.752-.42-9.963.488a3.052 3.052 0 0 0-2.289 1.763c-.08.62-.127 1.243-.145 1.868-.373 2.037-3.051 2.495-5.134 2.48l-8.59-.054c-1.784 0-3.76-.099-5.042-1.335a3.753 3.753 0 0 1-.076-4.943c4.959-.206 9.833 0 14.776-1.022 2.007-.404 3.982-.938 6.012-1.22 4.394-.626 9.07-.092 13.105-1.954 3.364-1.525 5.775-4.63 7.202-8.093a9.917 9.917 0 0 1-1.518 7.11Z" fill-rule="evenodd" data-name="Path 1383"/><path d="M1368.22 821.313c-3.051 2.365-6.629 4.21-10.473 4.41-3.845.197-7.926-1.527-9.81-4.868-2.754-4.905-.313-11.725-3.685-16.226-1.053-1.41-2.57-2.41-3.685-3.776-1.113-1.365-1.754-3.417-.763-4.867-1.197.458-2.464-.701-2.814-1.937-.351-1.236-.13-2.563-.344-3.814-.557-3.319-3.814-5.447-5.378-8.392-1.564-2.944-1.35-6.766-1.525-10.252a38.905 38.905 0 0 0-9.002-23.153c-1.037-1.235-2.365-2.494-3.982-2.433.282-2.792-1.58-5.462-3.99-6.866-2.41-1.403-5.279-1.876-8.07-2.15-28.172-2.778-57.527 7.696-84.424-1.115-7.484-2.448-14.7-6.545-19.277-12.968a22.672 22.672 0 0 1-4.036-17.149v-.106c1.06-5.417 3.921-6.752 8.658-9.223a103.927 103.927 0 0 1 17.08-7.163c11.443-3.578 23.763-4.867 35.572-2.243 5.515 1.236 10.832 3.28 16.355 4.478 2.174.473 4.364.808 6.568 1.09 3.425.428 6.866.71 10.314 1.107a156.022 156.022 0 0 1 32.39 7.285c3.914 1.327 7.827 2.845 11.191 5.248a24.792 24.792 0 0 1 9.948 16.37c.32 2.244.328 4.578.816 6.752a34.324 34.324 0 0 0 1.83 5.34 355.206 355.206 0 0 1 15.936 49.585 12.046 12.046 0 0 0 1.274 3.585c.977 1.58 2.655 2.64 3.64 4.219 2.288 3.722.083 8.917 2.112 12.793.702 1.342 1.87 2.403 2.571 3.745 2.289 4.402-1.09 9.665-4.997 12.694Z" fill="#454b69" fill-rule="evenodd" data-name="Path 1384"/><path d="M1329.24 733.662a12.584 12.584 0 0 0 2.768-3.051 5.691 5.691 0 0 0 .84-3.944 11.283 11.283 0 0 1-2.968 9.703c-1.915 1.96-5.508 3.883-8.307 3.212.396-2.243 5.889-4.41 7.666-5.92Z" fill-rule="evenodd" data-name="Path 1385"/><path d="M1281.577 695.642a5.119 5.119 0 0 1-3.387 3.494c-1.627.497-3.33.696-5.028.587h-1.525c-20.017-.442-40.248-4.882-59.8-.648a43.293 43.293 0 0 0-6.91 2.037 31.202 31.202 0 0 0-7.942 4.577v-.107c1.06-5.416 3.921-6.751 8.658-9.223a103.932 103.932 0 0 1 17.057-7.094c11.443-3.578 23.763-4.867 35.572-2.243 5.515 1.236 10.832 3.28 16.355 4.478 2.174.473 4.364.808 6.568 1.09.428.957.56 2.02.382 3.052Z" fill-rule="evenodd" data-name="Path 1386"/><path d="M1281.577 694.551a5.11 5.11 0 0 1-3.387 3.502c-1.627.498-3.33.694-5.028.58h-1.525c-20.017-.443-40.248-4.883-59.8-.65a44.074 44.074 0 0 0-6.91 2.03 31.428 31.428 0 0 0-8.278 4.882c-.585-1.607-1.167-3.216-1.747-4.829-.701-1.922 1.526-2.35 1.953-4.073.282-1.167-.198-2.495-.442-3.738a6.527 6.527 0 0 1-.122-.923c-.138-2.754.846-4.34 3.104-5.828 6.698-4.425 14.868-7.46 22.512-9.742a55.688 55.688 0 0 1 12.51-2.426c6.012-.35 12.015.763 17.866 2.174 7.194 1.778 14.311 4.127 20.689 7.888 3.127 1.823 6.179 4.112 7.865 7.362a5.797 5.797 0 0 1 .74 3.791Z" fill="#a26565" fill-rule="evenodd" data-name="Path 1387"/><path d="M1217.14 648.735c-2.29 7.254-8.537 13.792-16.143 14.105a2.815 2.815 0 0 1-1.61-.29c-.953-.595-.976-1.991-.587-3.052.39-1.06 1.068-2.013 1.175-3.127a2.045 2.045 0 0 0-.046-.68c4.036-5.69 7.95-11.442 9.498-18.178.313-1.16.41-2.367.282-3.562-.206-1.373-.9-2.617-1.281-3.944-.672-2.35-.359-4.837-.168-7.27a67.13 67.13 0 0 0-5.218-31.345c-1.03-2.38-2.205-4.79-2.563-7.331a4.417 4.417 0 0 1 2.51-2.144c2.502-.839 4.142.466 4.508 2.838.61 4.036.26 8.155 1.06 12.206a57.214 57.214 0 0 0 3.35 11.053c1.35 3.22 2.99 6.332 4.027 9.665a53.248 53.248 0 0 1 1.67 8.392c1.046 7.567 1.847 15.41-.465 22.664Z" fill-rule="evenodd" data-name="Path 1388"/><path d="M1281.577 694.551a5.11 5.11 0 0 1-3.387 3.502c-1.627.498-3.33.694-5.028.58h-1.525a33.236 33.236 0 0 0-22.123-5.34c-2.487.297-4.973.877-7.46.648-5.027-.458-9.101-4.074-13.579-6.385a28.515 28.515 0 0 0-31.604 4.287l-.435.381a6.517 6.517 0 0 1-.122-.923c-.138-2.753.846-4.34 3.104-5.828 6.698-4.424 14.868-7.46 22.512-9.741a55.684 55.684 0 0 1 12.51-2.426c6.012-.351 12.015.763 17.866 2.174 7.194 1.777 14.311 4.127 20.689 7.888 3.104 1.854 6.156 4.142 7.842 7.392a5.797 5.797 0 0 1 .74 3.791Z" fill-rule="evenodd" data-name="Path 1389"/><path d="m1298.687 610.99-.107.274c-1.708 4.432-4.851 8.177-6.865 12.495-2.54 5.47-3.166 11.603-3.73 17.614-.489 5.15-.97 10.33-.58 15.494.976 12.724 7.193 24.792 8.856 37.272.41 2.882.515 5.8.313 8.704-.137 1.839-.473 3.814-1.693 5.172-1.221 1.358-3.593 1.892-4.906.588.588-1.122 1.183-2.235 1.778-3.357-3.486-2.708-8.735-.763-12.808-2.456-1.793-.763-3.227-2.136-4.73-3.364a33.168 33.168 0 0 0-24.708-7.217c-2.487.305-4.974.885-7.461.656-5.027-.465-9.1-4.073-13.579-6.385a28.53 28.53 0 0 0-31.604 4.28c-1.068.991-2.502 2.151-3.814 1.525a3.174 3.174 0 0 1-1.183-1.289c-4.996-8.536-1.32-19.544 4.02-27.859 5.34-8.315 12.412-15.981 14.609-25.616a9.56 9.56 0 0 0 .282-3.563c-.206-1.373-.9-2.616-1.281-3.944-.672-2.35-.359-4.836-.168-7.27a67.13 67.13 0 0 0-5.203-31.352c-1.22-2.846-2.67-5.73-2.67-8.819 0-4.867 3.486-8.902 6.37-12.815 3.318-4.501 6.103-9.483 10.306-13.182 3.982-3.517 9.75-5.668 14.677-3.883a91.498 91.498 0 0 1 25.601-2.495c2.975.137 6.05.45 8.658 1.892 2.792 1.526 4.799 4.241 7.545 5.866 2.006 1.198 4.318 1.762 6.5 2.602a26.86 26.86 0 0 1 14.005 12.525c3.051 5.913 3.814 12.71 4.486 19.33.64 6.233 1.25 12.71-.916 18.576Z" fill="#6c63ff" fill-rule="evenodd" data-name="Path 1390"/><path d="M1287.405 656.867c.976 12.724 7.193 24.792 8.856 37.272-3.326-2.815-7.956-5.645-8.574-8.917-.687-3.54-2.884-8.178-3.25-11.756-.366-3.578 2.144-7.949-.488-10.405-1.282-1.198 2.128-.862.877-2.09-2.815-2.739-3.509-6.957-3.684-10.87-.298-6.927.58-13.93-.694-20.742-.763-4.204-2.358-8.209-3.632-12.29-1.48-4.752-2.547-9.62-3.615-14.494a101.54 101.54 0 0 1-2.289-13.167c-.328-3.814-.175-7.857 1.526-11.335 1.7-3.479 5.141-6.302 9.001-6.248 12.908.168 10.68 17.667 13.518 25.753 1.137 3.22 2.67 6.332 3.288 9.689a25.68 25.68 0 0 1 .366 3.982c-1.709 4.432-4.852 8.177-6.866 12.495-2.54 5.47-3.165 11.603-3.73 17.614-.519 5.164-1 10.344-.61 15.509Z" fill-rule="evenodd" data-name="Path 1391"/><path d="M1295.796 597.38c1.137 3.22 2.67 6.332 3.288 9.688 1.03 5.622-.565 11.595 1.167 17.042.45 1.163.828 2.353 1.129 3.563.298 1.731-.046 3.501-.046 5.263 0 2.838.893 5.584 1.686 8.308a148.471 148.471 0 0 1 5.302 28.347c.126 2.58.533 5.137 1.213 7.628.32.844.595 1.705.824 2.579.205 1.165.253 2.353.145 3.532-.206 3.738-.626 7.49-.206 11.214.42 3.722 1.777 7.498 4.577 9.993-2.502.541-5.15 1.083-7.59.282-3.433-1.121-5.493-4.577-7.24-7.72-2.212-4.013-10.619-7.628-11.488-12.137-.68-3.532-2.876-8.17-3.242-11.755-.367-3.586 2.136-7.941-.496-10.398-1.274-1.197 2.136-.87.877-2.09-2.807-2.739-3.501-6.957-3.677-10.878-.297-6.92.572-13.922-.694-20.734-.763-4.203-2.357-8.208-3.631-12.297-1.48-4.745-2.548-9.612-3.616-14.494a100.495 100.495 0 0 1-2.289-13.167c-.328-3.814-.183-7.865 1.526-11.343 1.709-3.479 5.15-6.294 9.002-6.248 12.854.229 10.641 17.736 13.48 25.822Z" fill="#6c63ff" fill-rule="evenodd" data-name="Path 1392"/><path d="M1259.012 600.363c1.205 1.411 2.754 2.96 4.577 2.685a.992.992 0 0 1-1.35.32 2.9 2.9 0 0 1-1.015-1.167l-2.609-4.401c-.343-.572-2.708-3.906-3.288-1.984-.229.817 3.097 3.86 3.685 4.547Z" fill-rule="evenodd" data-name="Path 1393"/><path d="M1257.608 611.34a5.813 5.813 0 0 0-1.701-3.814 9.536 9.536 0 0 0-3.15-1.9c-2.861-1.174-6.248-2.12-9.353-1.968 1.129 1.648 4.752 2.632 6.568 3.563 2.573 1.327 5.119 2.7 7.636 4.12Z" fill-rule="evenodd" data-name="Path 1394"/><path d="M1265.732 642.586c-.526 3.906-3.722 6.866-6.957 9.154-3.234 2.289-6.865 4.257-8.978 7.568-1.465 2.288-2.121 4.943-3.365 7.33-1.373 2.632-3.425 4.845-5.065 7.316-1.64 2.472-2.922 5.424-2.418 8.354a.984.984 0 0 0 .35.701 1 1 0 0 0 .97-.107c3.326-1.739 4.638-5.713 6.034-9.154a105.768 105.768 0 0 1 4.943-10.16c.824-1.526 1.732-3.19 3.265-4.036a28.647 28.647 0 0 1 3.22-1.122 10.824 10.824 0 0 0 3.974-3.12 26.196 26.196 0 0 0 6.102-17.781c-.046-1.366-.122-7.942-2.174-5.912-2.052 2.029.45 8.315.1 10.97Z" fill-rule="evenodd" data-name="Path 1395"/><path d="M1270.76 492.787c6.56 2.86 12.205 9.154 12 16.286-.176 7.491-6.447 14.548-4.288 21.726 1.251 4.165 5.02 6.957 8.002 10.123 11.359 12.022 11.336 33.008-.06 45.008-4.364 4.577-9.971 7.834-14.586 12.205-16.272 15.333-16.966 41.858-8.254 62.447a101.56 101.56 0 0 1-20.307 2.288c-3.197 0-7.11-.541-8.27-3.524-1.068-2.754.763-6.477-1.342-8.513-.992-.954-2.48-1.084-3.814-1.305-8.59-1.388-15.639-8.246-18.858-16.325-3.22-8.078-3.051-17.171-1.205-25.67 1.312-6.14 3.364-12.9.32-18.392-3.814-6.91-14.784-9.825-14.616-17.728.137-6.477 7.773-9.627 12.106-14.44 7.995-8.865 4.188-22.619 4.173-34.565 0-10.512 3.677-21.36 11.504-28.363 11.64-10.504 34.06-7.094 47.495-1.258Z" fill="#a26565" fill-rule="evenodd" data-name="Path 1396"/><g data-name="Group 324"><path d="M1211.35 581.307c-3.35-6.042-12.145-9.032-14.19-14.975a8.46 8.46 0 0 0-1.647 4.776c-.168 7.903 10.786 10.817 14.616 17.736a14.41 14.41 0 0 1 1.525 7.949c1.206-5.31 2.266-10.848-.305-15.486Z" fill-rule="evenodd" data-name="Path 1397"/><path d="M1279.35 521.02c1.372-4.005 3.363-8.049 3.462-12.206.014-.45.002-.901-.038-1.35-1.533 4.592-3.883 9.047-3.425 13.555Z" fill-rule="evenodd" data-name="Path 1398"/><path d="M1212.661 542.356c2.625-8.292.359-18.575.351-27.775 0-1.114.046-2.235.13-3.349a44.048 44.048 0 0 0-1.358 10.878c.015 6.568 1.167 13.693.877 20.246Z" fill-rule="evenodd" data-name="Path 1399"/><path d="M1287.687 578.126c-4.363 4.577-9.97 7.834-14.586 12.205-8.238 7.759-12.472 18.385-13.532 29.652 1.968-8.391 5.942-16.119 12.312-22.122 4.577-4.349 10.222-7.59 14.585-12.206a32.413 32.413 0 0 0 8.506-20.642 30.979 30.979 0 0 1-7.285 13.113Z" fill-rule="evenodd" data-name="Path 1400"/><path d="M1244.54 655.043c-3.196 0-7.11-.549-8.269-3.532-1.068-2.746.763-6.468-1.342-8.513-.992-.953-2.487-1.083-3.814-1.304-8.582-1.381-15.631-8.247-18.85-16.318-2.373-5.965-2.884-12.472-2.289-18.895-.06.252-.114.503-.168.763-1.815 8.498-2.006 17.598 1.206 25.677 3.211 8.078 10.267 14.936 18.85 16.317 1.357.221 2.852.359 3.814 1.305 2.128 2.044.274 5.767 1.342 8.513 1.16 2.983 5.073 3.57 8.27 3.532a101.635 101.635 0 0 0 20.306-2.289 68.184 68.184 0 0 1-2.464-6.812 101.262 101.262 0 0 1-16.591 1.556Z" fill-rule="evenodd" data-name="Path 1401"/></g><path d="M1269.524 621.776c1.884 1.419 3.928-3.99 2.761-5.34-.313.35-3.051 5.142-2.761 5.34Z" fill-rule="evenodd" data-name="Path 1402"/><path d="M1277.556 719.68c2.22-.764 4.578-1.527 6.027-3.357 1.198-1.473 2.182-7.316-.351-4.516-2.151 2.403-3.166 5.568-5.676 7.872Z" fill-rule="evenodd" data-name="Path 1403"/><path d="M1300.16 713.554c-.267 1.8-.763 3.669-2.037 4.966-.237.244-.763.396-.832.068a19.289 19.289 0 0 0 3.937-2.776c2.578-2.556 2.929-8.85-1-10.52-.038 2.761.351 5.454-.068 8.262Z" fill-rule="evenodd" data-name="Path 1404"/><path d="M1327.294 702.21s-21.65-8.506-29.476-7.628c-7.827.877 8.864 13.212 8.864 13.212l9.978 6.728s6.103-2.288 6.507-2.464c.404-.175 4.127-9.848 4.127-9.848Z" fill="#454b69" fill-rule="evenodd" data-name="Path 1405"/><path d="M1178.333 610.959s16.264-9.429 37.73 2.288c21.467 11.717 25.045 80.671 25.045 80.671s-8.78 70.25 25.074 54.62c0 0 61.79-19.186 67.977-14.96 0 0 5.86 0-5.85 2.601-11.71 2.602-56.947 16.936-56.947 16.936s-14.624 5.11-20.818 0c-6.194-5.111-23.747.656-26.028-34.481a611.029 611.029 0 0 0-8.132-66.032l-6.034-17.888-32.017-23.755Z" fill="#565661" fill-rule="evenodd" data-name="Path 1406"/><path d="M1176.38 719.603s7.156-71.234-4.577-96.935c-10.206-22.397 29.263-11.923 39.562-8.872a7.499 7.499 0 0 1 3.951 2.823c6.103 8.582 27.996 42.979 21.543 89 0 0-2.602 40.989 13.662 47.488l-50.11-16.142c-4.067-1.312-8.194-2.403-12.359-3.349-5.31-1.205-13.96-4.63-11.671-14.013Z" fill="#fff" fill-rule="evenodd" data-name="Path 1407"/><path d="M1532.789 852.59h6.507l4.264-87.453.29-4.974-5.53-1.945-.367 5.287-5.164 89.084Z" fill="#565661" fill-rule="evenodd" data-name="Path 1408"/><path d="m1537.953 763.505 5.607 1.632.29-4.974-5.53-1.945-.367 5.287Z" fill-rule="evenodd" data-name="Path 1409"/><path d="M1478.459 818.818a14.665 14.665 0 0 1-.915 3.494 6.172 6.172 0 0 1-2.785 3.479 7.355 7.355 0 0 1-2.815.557c-3.593.213-7.392.16-10.481-1.671a19.073 19.073 0 0 1-3.593-2.998 163.93 163.93 0 0 1-18.858-22.428c-.938-1.35-1.907-2.944-1.487-4.577a71.106 71.106 0 0 0 20.421-9.345 9.857 9.857 0 0 1 2.868-1.525 15.585 15.585 0 0 1 5.386-.199c1.732.283 1.808.336 2.472 2.289 1.098 3.303.915 6.866 2.15 10.169a31.5 31.5 0 0 0 2.854 5.218c3.189 5.332 5.637 11.625 4.783 17.537Z" fill="#a26565" fill-rule="evenodd" data-name="Path 1410"/><path d="M1478.459 818.818a14.665 14.665 0 0 1-.915 3.494 6.172 6.172 0 0 1-2.785 3.479 7.355 7.355 0 0 1-2.815.557c-3.593.213-7.392.16-10.481-1.671a19.073 19.073 0 0 1-3.593-2.998 163.93 163.93 0 0 1-18.858-22.428c-.938-1.35-1.907-2.944-1.487-4.577a70.82 70.82 0 0 0 6.987-2.334l.115.084c2.342 1.67 4.043 4.066 5.698 6.415l5.34 7.514a22.12 22.12 0 0 0 3.35 4.043 22.411 22.411 0 0 0 5.179 3.113c2.51 1.213 5.02 2.426 7.628 3.402 1.686.68 4.54.946 6.637 1.907Z" fill-rule="evenodd" data-name="Path 1411"/><path d="M1483.387 737.354a22.964 22.964 0 0 1-1.907 3.639 155.743 155.743 0 0 0-16.264 38.058c-1.053-.236-1.648 1.198-1.64 2.289.007 1.09 0 2.464-1.007 2.86-.298.115-.633.115-.923.245-.641.29-.824 1.106-.916 1.807l-.9 6.607c-.313 2.288-.587 4.767.534 6.79a10.855 10.855 0 0 0 2.952 3.05l14.891 11.748c.61.48 1.366.992 2.098.725 1.67-.61.19-3.6 1.526-4.814.885-.831 2.288-.206 3.516-.305 1.602-.122 2.815-1.594 3.22-3.143.283-1.577.312-3.19.084-4.775a4.332 4.332 0 0 1 .244-2.144 5.205 5.205 0 0 1 1.823-1.747 19.574 19.574 0 0 0 8.017-16.508 9.152 9.152 0 0 1 .107-2.921c.31-.88.778-1.698 1.38-2.41 5.41-7.317 9.918-15.258 14.396-23.184 2.578-4.577 5.202-9.222 6.102-14.38a1.335 1.335 0 0 0-1.098-1.83 51.892 51.892 0 0 0-6.82-1.633c-7.01-1.418-13.777-3.608-20.597-5.713-6.82-2.106-6.766 2.181-8.818 7.69Z" fill="#454b69" fill-rule="evenodd" data-name="Path 1412"/><path d="m1451.142 871.088 10.74 1.297 49.44-112.222 13.335-.976 23.427 6.835 4.546 133.612h10.733l-4.226-138.494 25.7.656 45.863 114.167h9.756l-48.234-133.429-1.854-5.142-71.89-2.464-17.92 10.047-.228.58-49.188 125.533Z" fill="#565661" fill-rule="evenodd" data-name="Path 1413"/><path d="M1500.33 745.555a2669.029 2669.029 0 0 1 31.482 9.734s14.624 5.103 20.818 0a9.357 9.357 0 0 1 2.586-1.427 12.74 12.74 0 0 1-2.586 1.427l39.592-12.763-1.83-5.134-71.891-2.464-17.92 10.047-.251.58Z" fill-rule="evenodd" data-name="Path 1414"/><path d="m1573.448 723.41-29.27-6.508s-69.938 13.015-75.14 18.217c0 0 55.947 11.382 62.126 15.257 6.179 3.875 42.94 8.162 42.284-26.967Z" fill="#fff" fill-rule="evenodd" data-name="Path 1415"/><path d="M1464.835 827.98c-1.763 3.357-6.103 4.303-9.917 4.356a41.874 41.874 0 0 1-15.501-2.77c-2.823-1.082-5.531-2.478-8.445-3.272-4.34-1.19-9.154-1.09-12.968-3.478a15.256 15.256 0 0 1-4.875-5.287 18.752 18.752 0 0 1-.633-1.16c-1.823-3.547-2.67-7.674-1.655-11.503 1.014-3.83 4.699-8.048 8.97-7.987 5.073.076 11.123 2.48 16.02 3.723 6.103 1.525 12.206 3.288 17.6 6.514 4.515 2.716 8.505 6.614 10.633 11.374.41.919.746 1.867 1.007 2.838.664 2.197.816 4.646-.236 6.652Z" fill="#a26565" fill-rule="evenodd" data-name="Path 1416"/><path d="M1464.835 827.98c-1.763 3.357-6.103 4.303-9.917 4.356a41.873 41.873 0 0 1-15.501-2.77c-2.823-1.082-5.531-2.478-8.445-3.272-4.34-1.19-9.154-1.09-12.969-3.478a15.257 15.257 0 0 1-4.874-5.287 18.752 18.752 0 0 1-.633-1.16c.763.062 1.464.138 1.846.176 4.684.45 9.154 2.159 13.624 3.448a76.523 76.523 0 0 0 19.071 2.975c4.577.13 9.353-.206 13.35-2.44a35.018 35.018 0 0 1 3.707-2.038c.41.919.746 1.867 1.007 2.838.634 2.197.786 4.646-.266 6.652Z" fill-rule="evenodd" data-name="Path 1417"/><path d="M1497.614 682.933c-9.917-1.625-20.017-2.022-30.071-2.418l-12.297-.488a5.575 5.575 0 0 0-2.586.312c-.712.457-1.387.967-2.022 1.526-1.236.84-2.815.93-4.302 1.015a214.174 214.174 0 0 0-31.4 4.073c-5.339 1.091-10.885 2.518-14.897 6.202-4.242 3.898-6.103 9.84-6.248 15.593-.145 5.751 1.365 11.404 2.96 16.927a77.117 77.117 0 0 1 3.333 20.49 38.335 38.335 0 0 0 .222 5.775c.355 1.83.894 3.619 1.61 5.34l5.614 14.99c.496 1.312.984 2.616 1.525 3.898.542 1.281 1.06 2.288 1.526 3.494.687 1.647 1.228 3.356 1.77 5.057l3.738 11.74.488 1.526c1.35 4.226 2.731 8.529 5.279 12.16 2.548 3.631 6.492 6.56 10.924 6.782a33.462 33.462 0 0 1 4.287.114c1.215.297 2.394.724 3.517 1.274a26.829 26.829 0 0 0 10.504 2.052c3.318 0 7.003-.923 8.803-3.715.992-1.526 1.251-3.402 1.526-5.203.48-3.616.946-7.392-.282-10.824-.763-2.052-2.045-3.815-2.93-5.836-1.235-2.754-1.64-5.798-2.44-8.704a33.245 33.245 0 0 0-10.147-16.142 159.107 159.107 0 0 1-3.814-20.887 18.383 18.383 0 0 0-.923-4.577c-.892-2.288-2.7-4.142-3.456-6.476-.709-2.167-.495-4.669-1.785-6.538 10.734 2.952 21.36 2.289 32.505 2.113a88.795 88.795 0 0 0 10.68-.61 33.57 33.57 0 0 1 5.004-.534c3.448 0 6.683 1.526 9.849 2.868 8.948 3.815 18.376 6.813 28.095 7.224 10.031.42 19.948-1.937 29.75-4.271 4.311-1.03 8.789-2.144 12.206-4.974 3.418-2.83 5.34-7.934 3.235-11.817-1.602-2.921-4.92-4.356-8.018-5.576-8.574-3.387-17.194-6.69-25.456-10.787-12.617-6.148-22.053-19.88-35.876-22.168Z" fill="#454b69" fill-rule="evenodd" data-name="Path 1418"/><path d="M1479.931 648.422c-1.197 2.594-3.211 4.714-4.699 7.155a18.133 18.133 0 0 0-2.288 13.465 15.318 15.318 0 0 0 8.582 10.443 21.536 21.536 0 0 0 5.95 1.434c2.685.328 5.546.397 7.918-.9a11.565 11.565 0 0 0 4.219-4.41c2.052-3.432 3.219-7.3 4.287-11.152 1.976-7.11 3.661-14.403 3.417-21.78-.084-2.54-.587-5.4-2.693-6.865a9.055 9.055 0 0 0-3.54-1.16l-10.061-1.8c-1.945-.35-5.34-1.777-7.026-.373-1.686 1.403-1.815 5.553-2.105 7.498-.458 2.876-.74 5.798-1.96 8.445Z" fill="#a1616a" fill-rule="evenodd" data-name="Path 1419"/><path d="m1602.238 618.915-2.632 22.062a101.461 101.461 0 0 0-.938 11.87c0 2.212.069 4.668-1.396 6.323a5.766 5.766 0 0 1-2.624 1.58c-3.197.991-6.683.106-9.734-1.26-1.785-.762-3.608-1.868-4.417-3.646a9.06 9.06 0 0 1-.572-3.867c0-13.16 1.243-26.883 8.116-38.097a8.308 8.308 0 0 1 2.419-2.792c1.907-1.22 4.401-.877 6.56-.213 1.327.404 4.913.854 5.76 2.037.846 1.182-.359 4.485-.542 6.003Z" fill="#a1616a" fill-rule="evenodd" data-name="Path 1420"/><path d="M1504.952 511.575a27.462 27.462 0 1 1 0 .1z" fill="#a1616a" fill-rule="evenodd" data-name="Ellipse 35"/><path d="M1525.069 552.601a14.165 14.165 0 0 1-1.701 6.103 1224.266 1224.266 0 0 0 41.956-7.14 19.705 19.705 0 0 1-9.734-11.443 32.314 32.314 0 0 1-1.236-8.155 94.272 94.272 0 0 1 .252-13.128c-4.882.51-9.505 2.342-14.158 3.913a139.598 139.598 0 0 1-14.258 3.99c-2.327.519-4.668.961-7.018 1.373-2.746.488-4.066.48-2.159 2.891 5.119 6.438 8.773 12.984 8.056 21.596Z" fill="#a1616a" fill-rule="evenodd" data-name="Path 1421"/><path d="M1533.506 548.932c-3.624.541-7.423 1.152-10.314 3.395a38.917 38.917 0 0 0-3.135 3.013c-5.744 5.576-13.853 7.819-20.826 11.755a9.155 9.155 0 0 0-2.96 2.327c-.763 1.06-1.152 2.41-1.953 3.463-.93 1.22-2.403 1.984-3.127 3.334-.725 1.35-.565 2.784-.641 4.218-.175 3.15-1.366 6.141-2.289 9.154-4.233 14.426-1.914 30.514-8.322 44.139a6.202 6.202 0 0 0 3.372 3.524c1.612.58 3.295.943 5.004 1.076l14.196 1.762c2.03.251 4.18.488 6.034-.359a70.894 70.894 0 0 0-3.577 14.44 71.917 71.917 0 0 1-1.602 8.941c-1.953 6.713-6.866 12.305-12.686 16.127a4.691 4.691 0 0 0-1.793 1.655c-.763 1.526.366 3.235 1.167 4.73 2.327 4.333 2.006 9.535 1.976 14.448-.03 4.913.465 10.306 3.898 13.83 2.03 2.083 4.806 3.212 7.506 4.288l22.207 8.871a77.387 77.387 0 0 0 11.305 3.815c5.851 1.335 11.931 1.281 17.935 1.022 3.966-.168 7.928-.422 11.885-.763a9.246 9.246 0 0 0 4.493-1.182 8.39 8.39 0 0 0 2.632-3.57c3.09-6.721 4.127-14.563 8.917-20.193 3.288-3.867 8.392-6.957 8.765-12.015.176-2.517-.945-4.966-.96-7.49 0-3.106 1.624-6.058 1.525-9.155-.206-5.042-4.959-8.887-5.714-13.876-1.922-12.648 4.501-25.28 8.445-37.448.71-2.174 1.625-4.577 3.715-5.508 2.09-.93 5.035-.442 5.782-2.502 1.885-5.172 2.335-11.237 2.09-16.737-.137-3.18-1.266-6.293-1.136-9.482.091-2.243.809-4.424 1-6.66.29-3.379-.603-6.735-1.526-10a15.665 15.665 0 0 0-1.19-3.372 16.019 16.019 0 0 0-1.984-2.723l-3.715-4.417c-1.74-2.068-3.578-4.211-6.103-5.256-.816-2.022-3.425-3.418-5.294-4.532a54.253 54.253 0 0 0-5.828-2.86l-21.009-9.276a8.604 8.604 0 0 0-2.494-.809 8.078 8.078 0 0 0-3.708.763c-6.408 2.54-13.098 5.073-19.963 6.095Z" fill="#6c63ff" fill-rule="evenodd" data-name="Path 1422"/><path d="M1511.254 516.45c-.809-2.845-2.876-5.302-3.189-8.246-.282-2.617.87-5.15 1.526-7.697.656-2.548.633-5.66-1.389-7.354-.335-.29-.763-.55-.885-.977-.244-.763.527-1.457.763-2.227.435-1.526-1.45-3.212-.763-4.676.39-.801 1.366-1.084 2.22-1.335 3.265-.97 6.576-3.12 7.285-6.454 2.556 1.068 5.28-.938 7.24-2.884 1.96-1.945 4.37-4.165 7.071-3.577l-.602 1.228a19.529 19.529 0 0 1 12.915-.145h-1.282a17.713 17.713 0 0 1 10.215 3.456c-.328 0-.359.488-.23.762 1.069 2.495 3.815 3.815 6.462 4.433 1.594.38 3.326.656 4.493 1.8 1.167 1.144 1.19 3.532-.35 4.081a40.13 40.13 0 0 1 8.856 4.806c.763.557 1.625 1.312 1.525 2.288-.109.49-.267.969-.472 1.427a4.936 4.936 0 0 0 .16 2.441l.847 3.494c.93 3.883 1.663 8.559-1.168 11.374a10.443 10.443 0 0 1-1.838 12.328 5.08 5.08 0 0 1-3.814 6.568c.938 1.464.076 3.554-1.404 4.47-1.48.915-3.341.923-5.065.763-1.724-.16-3.471-.55-5.195-.29-2.51.389-4.966 2.098-7.385 1.335a16.576 16.576 0 0 1-2.586-1.389c-1.693-.907-3.661-1.113-5.538-1.525a25.585 25.585 0 0 1-8.948-3.815 10.488 10.488 0 0 1-4.112-4.577c-1.678-4.241 1.145-9.802-1.823-13.258-1.74-2.014-5.187-2.044-7.133-.32-.968.862-1.098 2.677-2.105 3.326-1.405.355-2.858.479-4.302.366Z" fill="#464353" fill-rule="evenodd" data-name="Path 1423"/><path d="M1473.935 735.188a12.586 12.586 0 0 1-2.769-3.052 5.69 5.69 0 0 1-.839-3.944 11.283 11.283 0 0 0 2.968 9.704c1.914 1.96 5.507 3.883 8.307 3.211-.397-2.242-5.89-4.409-7.667-5.92Z" fill-rule="evenodd" data-name="Path 1424"/><path d="M1624.841 612.484s-16.264-9.428-37.73 2.289c-21.467 11.717-25.044 80.67-25.044 80.67s8.78 70.25-25.075 54.62c0 0-61.79-19.185-67.977-14.96 0 0-5.859 0 5.851 2.602 11.71 2.601 56.946 16.935 56.946 16.935s14.624 5.111 20.818 0c6.195-5.11 23.748.656 26.029-34.48a611.006 611.006 0 0 1 8.131-66.032l6.034-17.889 32.017-23.755Z" fill="#565661" fill-rule="evenodd" data-name="Path 1425"/><path d="M1626.794 721.129s-7.156-71.235 4.577-96.935c10.207-22.397-29.263-11.923-39.561-8.872a7.499 7.499 0 0 0-3.952 2.823c-6.102 8.582-27.996 42.978-21.542 89 0 0 2.6 40.988-13.663 47.488l50.111-16.142c4.066-1.312 8.193-2.403 12.358-3.349 5.31-1.205 13.96-4.63 11.672-14.013Z" fill="#fff" fill-rule="evenodd" data-name="Path 1426"/><path d="M1683.832 847.607a74.331 11.939 0 1 1 0 .1z" fill="#6c63ff" fill-rule="evenodd" data-name="Ellipse 36"/><path d="M1755.768 619h4.783v107.69h-4.783V619z" fill="#535461" fill-rule="evenodd" data-name="Rectangle 130"/><path d="m1790.615 726.362-.298 4.851-.427 6.866-.176 2.853-.42 6.866-.182 2.853-.428 6.865-4.82 77.864c-.459 6.935-6.217 12.326-13.167 12.327h-25.075c-6.964-.003-12.724-5.422-13.151-12.373l-4.837-77.871-.42-6.866-.175-2.853-.435-6.865-.175-2.853-.42-6.866-.305-4.852a6.865 6.865 0 0 1 6.82-7.254h51.278a6.865 6.865 0 0 1 6.813 7.308Z" fill="#565661" fill-rule="evenodd" data-name="Path 1427"/><path d="m1790.317 731.213-.427 6.843h-63.453l-.428-6.843h64.308Z" fill="#9d9cb5" fill-rule="evenodd" data-name="Path 1428"/><path d="m1789.714 740.917-.42 6.85h-62.255l-.427-6.85h63.102Z" fill="#9d9cb5" fill-rule="evenodd" data-name="Path 1429"/><path d="m1789.112 750.62-.427 6.843h-61.043l-.427-6.843h61.897Z" fill="#9d9cb5" fill-rule="evenodd" data-name="Path 1430"/><path d="M1718.701 659.361c27.86 20.155 39.462 51.675 39.462 51.675s-33.565-1.152-61.432-21.306c-27.866-20.154-39.454-51.667-39.454-51.667s33.573 1.151 61.424 21.298Z" fill="#6c63ff" fill-rule="evenodd" data-name="Path 1431"/><path d="M1657.277 638.063s34.84 19.338 46.023 35.35 54.863 37.623 54.863 37.623" stroke-linejoin="round" stroke-linecap="round" stroke-width="2" stroke="#535461" fill="transparent" data-name="Path 1432"/><path d="M1736.682 618.763c15.165 10.962 21.481 28.126 21.481 28.126s-18.308-.634-33.435-11.596c-15.127-10.962-21.436-28.126-21.436-28.126s18.232.626 33.39 11.596Z" fill="#6c63ff" fill-rule="evenodd" data-name="Path 1433"/><path d="M1703.292 607.167s18.964 10.528 25.044 19.24c6.08 8.711 29.865 20.482 29.865 20.482" stroke-linejoin="round" stroke-linecap="round" stroke-width="2" stroke="#535461" fill="transparent" data-name="Path 1434"/><path d="M1780.194 646.011c-17.416 19.14-21.1 44.154-21.1 44.154s24.556-6.027 41.956-25.174c17.4-19.147 21.1-44.153 21.1-44.153s-24.54 6.034-41.956 25.173Z" fill="#6c63ff" fill-rule="evenodd" data-name="Path 1435"/><path d="M1822.166 620.845s-22.687 19.62-28.454 33.138c-5.768 13.518-34.618 36.182-34.618 36.182" stroke-linejoin="round" stroke-linecap="round" stroke-width="2" stroke="#535461" fill="transparent" data-name="Path 1436"/><path d="M1427.86 599.936v1.739h-51.576v-1.411a17.333 17.333 0 0 0 3.982-2.121 16.943 16.943 0 0 0 7.079-13.777c0-1.408-.176-2.81-.526-4.173a16.958 16.958 0 0 0-9.368-11.236h50.058a16.958 16.958 0 0 0-9.368 11.236 16.72 16.72 0 0 0-.519 4.173 16.935 16.935 0 0 0 7.072 13.777 17.45 17.45 0 0 0 3.165 1.793Z" fill="#dfe6f5" fill-rule="evenodd" data-name="Path 1437"/><path d="M1427.509 568.957a16.958 16.958 0 0 0-9.368 11.236h-31.322a16.958 16.958 0 0 0-9.368-11.236h50.058Z" fill-rule="evenodd" data-name="Path 1438"/><path d="M1317.232 560.07v9.794c0 5.401 3.951 9.788 8.834 9.788h151.737c4.882 0 8.841-4.387 8.841-9.788v-9.795h-169.412Z" fill="#dfe6f5" fill-rule="evenodd" data-name="Path 1439"/><path d="M1427.86 599.936v1.739h-51.576v-1.411a17.333 17.333 0 0 0 3.982-2.121h44.428c.99.706 2.05 1.307 3.165 1.793Z" fill-rule="evenodd" data-name="Path 1440"/><path d="M1361.824 598.685h80.495a2.582 2.582 0 0 1 2.582 2.582 2.582 2.582 0 0 1-2.582 2.582h-80.495a2.582 2.582 0 0 1-2.582-2.582 2.582 2.582 0 0 1 2.582-2.582z" fill="#dfe6f5" fill-rule="evenodd" data-name="Rectangle 131"/><path d="M1486.644 452.79a8.834 8.834 0 0 0-8.841-8.833h-151.737a8.826 8.826 0 0 0-8.834 8.834v109.186h169.412V452.79Z" fill="#474157" fill-rule="evenodd" data-name="Path 1441"/><path d="M1482.021 456.735v93.83a4.348 4.348 0 0 1-4.348 4.355h-151.47a4.348 4.348 0 0 1-4.348-4.356v-93.83a4.287 4.287 0 0 1 .58-2.174 4.348 4.348 0 0 1 3.768-2.174h151.47a4.348 4.348 0 0 1 4.348 4.349Z" fill="#4c4c78" fill-rule="evenodd" data-name="Path 1442"/><path d="M1399.901 448.068a2.037 2.037 0 1 1 0 .1z" fill="#fff" fill-rule="evenodd" data-name="Ellipse 37"/><path d="M1396.91 570.169a5.027 5.027 0 1 1 0 .1z" fill="#fff" fill-rule="evenodd" data-name="Ellipse 38"/><path d="M1482.021 456.735H1321.87a4.348 4.348 0 0 1 4.348-4.349h151.455a4.348 4.348 0 0 1 4.348 4.349Z" fill="#c8cad7" fill-rule="evenodd" data-name="Path 1443"/><path d="M1325.112 454.46a1.09 1.09 0 1 1 0 .1z" fill="#ededf4" fill-rule="evenodd" data-name="Ellipse 39"/><path d="M1328.377 454.46a1.09 1.09 0 1 1 0 .1z" fill="#ededf4" fill-rule="evenodd" data-name="Ellipse 40"/><path d="M1331.642 454.46a1.09 1.09 0 1 1 0 .1z" fill="#ededf4" fill-rule="evenodd" data-name="Ellipse 41"/></g><defs><linearGradient x1=".5" y1="0" x2=".5" y2="1" id="a"><stop stop-color="#e2e1ff" offset="0"/><stop stop-color="#807cf4" offset="1"/></linearGradient><linearGradient x1="-.03" y1=".503" x2=".97" y2=".503" id="b"><stop stop-color="rgba(128,128,128,0.25098039215686274 )" offset="0"/><stop stop-color="rgba(128,128,128,0.12156862745098039 )" offset=".54"/><stop stop-color="rgba(128,128,128,0.10196078431372549 )" offset="1"/></linearGradient></defs></svg>