<svg xmlns="http://www.w3.org/2000/svg" width="100" height="108.117" viewBox="901.932 1231 100 108.117"><g data-name="003-paint"><path d="M998.06 1236.266h-12.916a1.659 1.659 0 1 0 0 3.318h12.915c.305 0 .553.248.553.553v65.014a1.66 1.66 0 0 0 3.319 0v-65.014a3.875 3.875 0 0 0-3.872-3.871Zm0 0" fill="#fff" fill-rule="evenodd" data-name="Path 1597"/><path d="M1000.347 1307.088c-.874 0-1.584.708-1.584 1.583v21.364a5.921 5.921 0 0 1-5.914 5.915 5.921 5.921 0 0 1-5.914-5.915v-35.228c0-5.008-4.075-9.082-9.083-9.082s-9.082 4.074-9.082 9.082v10.713a5.921 5.921 0 0 1-5.914 5.914 5.921 5.921 0 0 1-5.915-5.914v-7.906l8.061-8.062a4.28 4.28 0 0 0 1.123-4.063l19.429-19.429a4.29 4.29 0 0 0 0-6.06l-20.808-20.807h14.265a1.584 1.584 0 1 0 0-3.167h-17.433l-3.772-3.773a4.29 4.29 0 0 0-6.06 0l-19.427 19.426a4.257 4.257 0 0 0-4.065 1.124l-8.403 8.404a4.289 4.289 0 0 0 0 6.06l11.144 11.144c-4.893 4.78-10.635 9.125-17.085 12.922-1.875 1.104-3.664 2.501-5.316 4.153-2.98 2.98-5.152 6.445-6.117 9.758-1.06 3.641-.564 6.727 1.397 8.688 1.308 1.309 3.104 1.949 5.178 1.949 3.035-.001 6.665-1.374 10.223-4.029a1.585 1.585 0 0 0-1.895-2.538c-4.528 3.379-9.265 4.38-11.266 2.379-1.09-1.091-1.308-3.118-.596-5.563.818-2.81 2.707-5.794 5.316-8.404 1.463-1.462 3.038-2.696 4.683-3.663 6.682-3.934 12.636-8.444 17.718-13.412l3.92 3.92c-4.968 5.082-9.477 11.037-13.411 17.718a22.318 22.318 0 0 1-1.72 2.498 1.584 1.584 0 0 0 2.486 1.963c.74-.935 1.4-1.895 1.963-2.854 3.798-6.45 8.143-12.192 12.923-17.085l11.144 11.144a4.253 4.253 0 0 0 3.03 1.255c.068 0 .136-.007.203-.01v6.32c0 5.007 4.075 9.081 9.083 9.081s9.082-4.074 9.082-9.081v-10.713a5.922 5.922 0 0 1 5.915-5.914 5.921 5.921 0 0 1 5.914 5.914v35.228c0 5.008 4.074 9.082 9.082 9.082 5.009 0 9.083-4.074 9.083-9.082v-21.364c-.001-.875-.71-1.583-1.585-1.583Zm-46.361-72.596a1.118 1.118 0 0 1 1.58 0l27.747 27.749a1.117 1.117 0 0 1 0 1.579l-18.991 18.992-7.409-7.409 3.21-3.208a1.584 1.584 0 0 0-2.24-2.24l-3.21 3.208-11.217-11.217 3.21-3.208a1.583 1.583 0 1 0-2.24-2.24l-3.21 3.209-1.706-1.707 12.63-12.63a1.584 1.584 0 0 0-2.239-2.24l-12.631 12.63-2.276-2.276 18.992-18.992Zm-1.206 61.223-30.69-30.688a1.118 1.118 0 0 1 0-1.58l8.405-8.403a1.11 1.11 0 0 1 .789-.327c.299 0 .579.116.79.327l30.689 30.689a1.118 1.118 0 0 1 0 1.58l-8.403 8.402a1.11 1.11 0 0 1-.79.328c-.3 0-.579-.117-.79-.328Zm0 0" fill="#fff" fill-rule="evenodd" data-name="Path 1598"/><path d="M932.927 1267.545a1.66 1.66 0 0 0-2.347 2.347l17.554 17.554a1.657 1.657 0 0 0 2.346 0 1.66 1.66 0 0 0 0-2.347l-17.553-17.554Zm0 0" fill="#fff" fill-rule="evenodd" data-name="Path 1599"/><path d="M990.861 1269.435h-.017c-.917 0-1.65.743-1.65 1.66 0 .917.75 1.659 1.667 1.659a1.659 1.659 0 1 0 0-3.319Zm0 0" fill="#fff" fill-rule="evenodd" data-name="Path 1600"/><path d="M992.228 1273.758a1.653 1.653 0 0 0-1.63 1.68c.011.91.76 1.639 1.667 1.639h.022a1.66 1.66 0 0 0-.02-3.319h-.022Zm0 0" fill="#fff" fill-rule="evenodd" data-name="Path 1601"/><path d="M982.791 1278.63c-.917 0-1.65.743-1.65 1.66 0 .916.75 1.659 1.667 1.659a1.66 1.66 0 1 0 0-3.319Zm0 0" fill="#fff" fill-rule="evenodd" data-name="Path 1602"/></g></svg>