<svg xmlns="http://www.w3.org/2000/svg" width="100" height="115.341" viewBox="1311.488 1615 100 115.341"><g data-name="002-phone"><path d="M1411.488 1693.36a22.117 22.117 0 0 0-.765-5.746 1.72 1.72 0 1 0-3.32.896c.426 1.583.644 3.215.646 4.854.006 4.968-1.93 9.592-5.45 13.018a18.149 18.149 0 0 1-5.142 3.525 1.72 1.72 0 1 0 1.427 3.13 21.525 21.525 0 0 0 4.653-2.891c-5.81 10.01-16.644 16.756-29.027 16.756-8.502 0-16.519-3.144-22.729-8.878h16.698c4.616 0 8.372-3.755 8.372-8.372v-.498c0-1.771-.568-3.493-1.644-4.981-4.883-6.757-4.46-16.847.964-22.97.868-.98 1.839-1.867 2.883-2.637a1.719 1.719 0 0 0 .197-2.6l-12.793-12.795a6.714 6.714 0 0 1-1.98-4.78c0-1.804.703-3.501 1.979-4.777 2.636-2.635 6.922-2.635 9.556-.001l9.243 9.242.008.008 17.313 17.313a18.75 18.75 0 0 1 2.18 2.619 1.72 1.72 0 1 0 2.833-1.95 22.146 22.146 0 0 0-2.581-3.101l-16.814-16.814v-37.68c0-4.549-3.7-8.25-8.247-8.25h-38.857a1.72 1.72 0 1 0 0 3.44h38.857a4.814 4.814 0 0 1 4.807 4.81v1.77h-61.737v-1.77a4.815 4.815 0 0 1 4.81-4.81h6.383a1.72 1.72 0 0 0 0-3.44h-6.383c-4.549 0-8.25 3.701-8.25 8.25v25.642c-4.59.815-8.09 4.833-8.09 9.656a9.808 9.808 0 0 0 4.267 8.09 9.81 9.81 0 0 0-4.267 8.091c0 4.822 3.5 8.84 8.09 9.657v25.391c0 4.548 3.701 8.247 8.25 8.247h19.129c.46.515.93 1.013 1.404 1.487 6.985 6.984 16.271 10.83 26.15 10.83 20.176 0 36.628-16.245 36.969-36.344.005-.212.009-.425.008-.638Zm-26.733-64.9v29.031l-6.31-6.31c-3.974-3.974-10.443-3.974-14.42 0a10.132 10.132 0 0 0-2.987 7.21c0 2.725 1.06 5.286 2.987 7.213l11.444 11.444c-.66.585-1.286 1.21-1.873 1.873-4.075 4.602-5.778 11.078-5.021 17.245h-45.557v-67.707h61.737Zm-69.827 30.088c0-2.916 1.972-5.38 4.651-6.133v12.266c-2.68-.753-4.65-3.216-4.65-6.133Zm0 16.181c0-2.916 1.972-5.38 4.651-6.132v12.265c-2.68-.753-4.65-3.217-4.65-6.133Zm8.09 35.048v-10.172h46.246c.665 2.35 1.715 4.59 3.156 6.583.648.897.991 1.923.991 2.966v.497a4.937 4.937 0 0 1-4.932 4.933H1327.828a4.814 4.814 0 0 1-4.81-4.807Zm0 0" fill="#fff" fill-rule="evenodd" data-name="Path 1595"/><path d="M1359.001 1705.225h-10.272a1.689 1.689 0 0 0 0 3.379h10.272a1.69 1.69 0 0 0 0-3.379Zm0 0" fill="#fff" fill-rule="evenodd" data-name="Path 1596"/></g></svg>