<svg xmlns="http://www.w3.org/2000/svg" width="100" height="100" viewBox="1308.307 1741 100 100"><g data-name="005-repair"><path d="M1322.718 1747.926a5.257 5.257 0 0 0-5.251 5.251 5.257 5.257 0 0 0 5.25 5.25 5.257 5.257 0 0 0 5.25-5.25 5.256 5.256 0 0 0-5.25-5.251Zm0 7.15c-1.048 0-1.9-.852-1.9-1.9 0-1.046.852-1.899 1.9-1.899 1.046 0 1.898.853 1.898 1.9s-.852 1.899-1.898 1.899Zm0 0" fill="#fff" fill-rule="evenodd" data-name="Path 1609"/><path d="M1333.792 1747.926a5.257 5.257 0 0 0-5.251 5.251 5.257 5.257 0 0 0 5.25 5.25 5.256 5.256 0 0 0 5.251-5.25 5.257 5.257 0 0 0-5.25-5.251Zm0 7.15c-1.047 0-1.9-.852-1.9-1.9 0-1.046.853-1.899 1.9-1.899s1.899.853 1.899 1.9-.852 1.899-1.9 1.899Zm0 0" fill="#fff" fill-rule="evenodd" data-name="Path 1610"/><path d="M1346.05 1747.926a5.257 5.257 0 0 0-5.25 5.251 5.256 5.256 0 0 0 5.25 5.25 5.256 5.256 0 0 0 5.25-5.25 5.257 5.257 0 0 0-5.25-5.251Zm0 7.15a1.901 1.901 0 0 1-1.9-1.9 1.9 1.9 0 0 1 1.9-1.899c1.047 0 1.899.853 1.899 1.9s-.853 1.899-1.9 1.899Zm0 0" fill="#fff" fill-rule="evenodd" data-name="Path 1611"/><path d="M1402.883 1741h-89.153a5.43 5.43 0 0 0-5.423 5.424v65.286a5.43 5.43 0 0 0 5.423 5.424h9.543c-.453.58-.413 1.42.12 1.954l7.108 7.108a30.327 30.327 0 0 0-1.395 3.364h-10.05a1.48 1.48 0 0 0-1.479 1.48v8.48c0 .818.662 1.48 1.479 1.48h29.191a1.48 1.48 0 0 0 1.48-1.48c0-4.513 3.672-8.185 8.185-8.185s8.185 3.672 8.185 8.186c0 .817.662 1.48 1.48 1.48h29.191a1.48 1.48 0 0 0 1.48-1.48v-8.482a1.48 1.48 0 0 0-1.48-1.48h-10.05a30.326 30.326 0 0 0-1.396-3.363l7.109-7.108a1.48 1.48 0 0 0 .12-1.954h10.331a5.43 5.43 0 0 0 5.424-5.424v-36.596a1.48 1.48 0 1 0-2.958 0v36.596a2.468 2.468 0 0 1-2.466 2.465h-13.273l-8.719-8.719v-10.117a1.48 1.48 0 0 0-1.479-1.48h-2.663v-9.115l2.088-1.927c.42-.388.579-.981.41-1.526l-3.55-11.44a1.48 1.48 0 0 0-1.413-1.04h-3.946a1.48 1.48 0 0 0-1.413 1.04l-3.55 11.44a1.48 1.48 0 0 0 .41 1.526l2.088 1.927v9.116h-2.662a1.48 1.48 0 0 0-1.48 1.479v3.846h-11.637v-2.247l5.681-5.68c.278-.279.433-.655.433-1.047v-12.13c0-.396-.158-.775-.44-1.053l-7.889-7.79a1.48 1.48 0 0 0-2.519 1.051v13.188l-3.846 2.421-3.846-2.421v-.843a1.48 1.48 0 1 0-2.958 0v1.66c0 .508.26.98.69 1.251l5.326 3.353a1.478 1.478 0 0 0 1.576 0l5.326-3.353c.43-.27.69-.743.69-1.252v-10.464l4.932 4.87v10.899l-5.681 5.68a1.48 1.48 0 0 0-.433 1.047v2.89a1.48 1.48 0 0 0-1.184 1.45v10.05a30.334 30.334 0 0 0-3.364 1.394l-6.695-6.695v-9.089a1.48 1.48 0 0 0-.433-1.046l-5.681-5.681v-10.9l4.93-4.869v1.876a1.48 1.48 0 1 0 2.96 0v-5.415a1.478 1.478 0 0 0-2.52-1.053l-7.89 7.791c-.281.278-.439.657-.439 1.052v12.131c0 .392.156.768.433 1.046l5.681 5.681v8.518l-8.719 8.72h-12.484a2.467 2.467 0 0 1-2.465-2.466v-49.211h94.083v5.723a1.48 1.48 0 0 0 2.959 0v-21.798a5.43 5.43 0 0 0-5.424-5.424Zm-32.528 42.01-1.878-1.734 2.951-9.507h1.765l2.95 9.507-1.877 1.734a1.48 1.48 0 0 0-.476 1.087v9.763h-2.958v-9.763c0-.414-.173-.807-.477-1.087Zm7.577 13.808v8.597l-6.695 6.695a30.487 30.487 0 0 0-3.365-1.396v-10.05a1.48 1.48 0 0 0-1.183-1.449v-2.396h11.243Zm-32.935 18.403a27.397 27.397 0 0 1 4.866-2.018 1.48 1.48 0 0 0 1.047-1.415v-9.644h14.004v9.644c0 .65.425 1.225 1.047 1.415a27.398 27.398 0 0 1 4.866 2.018 1.48 1.48 0 0 0 1.742-.26l6.821-6.82 8.56 8.56h.001l1.342 1.341-6.822 6.822a1.48 1.48 0 0 0-.26 1.742 27.35 27.35 0 0 1 2.019 4.866 1.48 1.48 0 0 0 1.414 1.046h9.645v5.523h-15.04c-.765-11.657-10.49-20.906-22.337-20.906-3.167 0-6.23.648-9.1 1.927a1.48 1.48 0 0 0 1.203 2.703 19.28 19.28 0 0 1 7.897-1.672c10.215 0 18.614 7.924 19.372 17.948h-8.326c-.725-5.447-5.402-9.664-11.046-9.664-5.643 0-10.32 4.217-11.046 9.664h-8.327c.36-4.857 2.489-9.32 6.087-12.695a1.48 1.48 0 0 0-2.024-2.158 22.482 22.482 0 0 0-7.025 14.853h-15.042v-5.523h9.644a1.48 1.48 0 0 0 1.416-1.046 27.351 27.351 0 0 1 2.018-4.866 1.48 1.48 0 0 0-.26-1.742l-6.821-6.822 1.341-1.34s0-.002.002-.002l8.559-8.56 6.821 6.822a1.48 1.48 0 0 0 1.742.26Zm-33.732-55.68v-13.117a2.468 2.468 0 0 1 2.465-2.465h89.153a2.468 2.468 0 0 1 2.465 2.465v13.116h-94.083Zm0 0" fill="#fff" fill-rule="evenodd" data-name="Path 1612"/></g></svg>