<svg xmlns="http://www.w3.org/2000/svg" width="30.288" height="30.967" viewBox="175 845 30.288 30.967"><g data-name="waving-hand"><g data-name="Group 340"><g data-name="Group 339"><path d="M198.977 849.683a14.629 14.629 0 0 0-3.396-4.566.454.454 0 0 0-.608.673 13.72 13.72 0 0 1 3.184 4.283.454.454 0 0 0 .82-.39Z" fill="#fff" fill-rule="evenodd" data-name="Path 1556"/></g></g><g data-name="Group 342"><g data-name="Group 341"><path d="M196.417 850.36a12.04 12.04 0 0 0-2.22-2.986.454.454 0 0 0-.636.647c.822.807 1.516 1.74 2.053 2.76a.454.454 0 1 0 .803-.421Z" fill="#fff" fill-rule="evenodd" data-name="Path 1557"/></g></g><g data-name="Group 344"><g data-name="Group 343"><path d="M179.048 864.28a13.73 13.73 0 0 1-3.184-4.282.454.454 0 0 0-.82.39 14.628 14.628 0 0 0 3.395 4.565.454.454 0 0 0 .609-.673Z" fill="#fff" fill-rule="evenodd" data-name="Path 1558"/></g></g><g data-name="Group 346"><g data-name="Group 345"><path d="M180.46 862.05a11.13 11.13 0 0 1-2.053-2.761.454.454 0 0 0-.803.422 12.041 12.041 0 0 0 2.22 2.986.454.454 0 0 0 .635-.648Z" fill="#fff" fill-rule="evenodd" data-name="Path 1559"/></g></g><g data-name="Group 348"><g data-name="Group 347"><path d="m204.889 867.494-.809-1.087c.115-.442.486-1.558.3-3.105-.2-1.68-.722-1.942-.887-2.91-.406-2.37.688-5.621.911-6.249l.017-.048c.477-1.51.793-2.508-.728-3.24-1.36-.655-2.792-.073-3.648 1.48-.052.096-1.15 2.114-1.621 4.866l-5.599-7.53a.453.453 0 1 0-.728.541l6.265 8.426a.454.454 0 0 0 .815-.228c.297-3.126 1.608-5.535 1.663-5.637.233-.423 1.1-1.755 2.46-1.1.859.413.702.653.25 2.166-.333.934-1.385 4.179-.952 6.707.208 1.212.692 1.283.882 2.864a6.354 6.354 0 0 1-.069 1.925c-.029.143-.194.82-.821 1.573a.454.454 0 0 0 .697.58c.086-.103.165-.206.238-.307l.635.855c.37.496.266 1.2-.23 1.569l-.955.71a.454.454 0 0 0 .271.817c.256 0 .298-.144 1.225-.8a2.031 2.031 0 0 0 .418-2.838Z" fill="#fff" fill-rule="evenodd" data-name="Path 1560"/></g></g><g data-name="Group 350"><g data-name="Group 349"><path d="M201.908 871.673a.453.453 0 0 0-.635-.093l-4.38 3.256a1.135 1.135 0 0 1-1.585-.233c-.181-.19-.79-1.384-2.29-1.83-2.698-.801-3.606-2.822-4.118-3.372a.454.454 0 1 0-.728.542c.479.51 1.557 2.8 4.587 3.7 1.165.346 1.626 1.292 1.82 1.501a2.043 2.043 0 0 0 2.856.42l4.38-3.256c.2-.15.243-.434.093-.635Z" fill="#fff" fill-rule="evenodd" data-name="Path 1561"/></g></g><g data-name="Group 353"><g data-name="Group 352"><g data-name="Group 351"><path d="m180.88 860.135-.003-.004.003.004Z" fill="#fff" fill-rule="evenodd" data-name="Path 1562"/><path d="M180.876 860.13Z" fill="#fff" fill-rule="evenodd" data-name="Path 1563"/><path d="m193.856 857.31-5.959-8.014a1.412 1.412 0 0 1 .401-2.05c.614-.376 1.444-.202 1.888.396l.646.868a.454.454 0 1 0 .728-.541l-.646-.868c-1.154-1.553-3.596-1.146-4.118.732-1.313-1.445-3.717-.773-4.028 1.163-.09.559.024 1.116.32 1.59-1.922-.041-3.05 2.164-1.883 3.734l.71.954c-1.958-.02-3.018 2.194-1.874 3.733l.835 1.123.001.001.013.018-.01-.014.013.017 6.014 8.089a.454.454 0 0 0 .728-.541l-6.866-9.234c-.748-1.007.024-2.402 1.252-2.278.673.069.984.557.992.563l4.128 5.552a.453.453 0 1 0 .728-.541l-5.936-7.984c-.453-.608-.371-1.46.185-1.94a1.41 1.41 0 0 1 2.057.225l5.602 7.534a.453.453 0 1 0 .728-.541l-6.58-8.85a1.41 1.41 0 0 1 .321-1.998c.62-.436 1.503-.28 1.97.347l6.912 9.296a.454.454 0 0 0 .728-.54Zm-12.962 2.844c.004.005.003.004 0 0Z" fill="#fff" fill-rule="evenodd" data-name="Path 1564"/></g></g></g></g></svg>